<?xml version="1.0" encoding="UTF-8" standalone="no"?>
<!-- Created with Inkscape (http://www.inkscape.org/) -->

<svg
   version="1.1"
   id="svg1"
   width="381"
   height="211"
   viewBox="0 0 381 211"
   sodipodi:docname="arrow-up.svg"
   xml:space="preserve"
   inkscape:version="1.3.2 (091e20e, 2023-11-25, custom)"
   xmlns:inkscape="http://www.inkscape.org/namespaces/inkscape"
   xmlns:sodipodi="http://sodipodi.sourceforge.net/DTD/sodipodi-0.dtd"
   xmlns="http://www.w3.org/2000/svg"
   xmlns:svg="http://www.w3.org/2000/svg"><defs
     id="defs1" /><sodipodi:namedview
     id="namedview1"
     pagecolor="#ffffff"
     bordercolor="#000000"
     borderopacity="0.25"
     inkscape:showpageshadow="2"
     inkscape:pageopacity="0.0"
     inkscape:pagecheckerboard="0"
     inkscape:deskcolor="#d1d1d1"
     inkscape:zoom="0.86351706"
     inkscape:cx="189.92097"
     inkscape:cy="105.96201"
     inkscape:window-width="1920"
     inkscape:window-height="1017"
     inkscape:window-x="-8"
     inkscape:window-y="-8"
     inkscape:window-maximized="1"
     inkscape:current-layer="g1" /><g
     inkscape:groupmode="layer"
     inkscape:label="Image"
     id="g1"><path
       style="fill:#b3b3b3"
       d="m 17.635701,210.05949 c -5.363884,-0.84008 -7.6645029,-2.2229 -11.8675129,-7.13317 -4.592932,-5.36581 -6.41896699,-13.06568 -4.300788,-18.13519 2.28881,-5.4779 21.4267079,-25.27548 102.8406599,-106.385577 l 76.42223,-76.1370199 5.45271,-1.09814 c 7.19478,-1.44898 11.82665,-0.27691 17.72822,4.48603 7.55274,6.0955499 170.42306,169.4775669 173.61735,174.1628169 2.28911,3.35757 2.89046,5.33674 2.88137,9.48322 -0.012,5.47936 -2.14987,11.83923 -5.06237,15.05992 -5.13404,5.67732 -18.11635,7.93847 -23.88332,4.1598 -4.06373,-2.66266 -55.3168,-52.80043 -111.32467,-108.902177 -26.67288,-26.71759 -48.92567,-48.57743 -49.45065,-48.57743 -0.52499,0 -35.62673,34.5693 -78.00387,76.820647 -42.377155,42.25136 -78.624359,77.96683 -80.549359,79.36771 -3.921679,2.85393 -8.560345,3.75881 -14.5,2.82856 z"
       id="path1" /></g></svg>
