<?xml version="1.0" encoding="UTF-8" standalone="no"?>
<svg
   viewBox="0 0 100 100"
   version="1.1"
   id="svg1"
   sodipodi:docname="cart.svg"
   inkscape:version="1.3.2 (091e20e, 2023-11-25, custom)"
   xmlns:inkscape="http://www.inkscape.org/namespaces/inkscape"
   xmlns:sodipodi="http://sodipodi.sourceforge.net/DTD/sodipodi-0.dtd"
   xmlns="http://www.w3.org/2000/svg"
   xmlns:svg="http://www.w3.org/2000/svg">
  <defs
     id="defs1" />
  <sodipodi:namedview
     id="namedview1"
     pagecolor="#ffffff"
     bordercolor="#000000"
     borderopacity="0.25"
     inkscape:showpageshadow="2"
     inkscape:pageopacity="0.0"
     inkscape:pagecheckerboard="0"
     inkscape:deskcolor="#d1d1d1"
     inkscape:zoom="5.8053467"
     inkscape:cx="49.95395"
     inkscape:cy="50.040078"
     inkscape:window-width="1920"
     inkscape:window-height="1017"
     inkscape:window-x="-8"
     inkscape:window-y="-8"
     inkscape:window-maximized="1"
     inkscape:current-layer="svg1" />
  <g
     id="bag"
     style="fill:#ffffff;stroke:#ffffff;stroke-width:2;stroke-dasharray:none;stroke-opacity:1"
     transform="translate(-1.5756991e-7,2.9999942)">
    <path
       d="m 81.34,27.06 c -0.05846,-1.061392 -0.937,-1.891609 -2,-1.89 H 69 V 22 C 69,11.506583 60.49341,3.0000082 50,3.0000082 39.50659,3.0000082 31,11.506583 31,22 v 3.21 H 20.65 c -1.063,-0.0016 -1.941536,0.828608 -2,1.89 l -3.91,61.78 c -0.06919,1.151107 0.846818,2.122078 2,2.12 h 66.52 c 1.153182,0.0021 2.069193,-0.968893 2,-2.12 z M 35,22 C 35,13.715723 41.715729,7.0000065 50,7.0000065 58.284271,7.0000065 65,13.715723 65,22 v 3.21 H 35 Z M 18.86,87 22.54,29.17 H 31 v 17.57 c 0,2.666666 4,2.666666 4,0 V 29.17 h 30 v 17.57 c 0,2.666666 4,2.666666 4,0 V 29.17 h 8.5 L 81.14,87 Z"
       id="path1"
       style="fill:#ffffff;stroke:#ffffff;stroke-width:2;stroke-dasharray:none;stroke-opacity:1"
       sodipodi:nodetypes="cccsssccccccccsssccscccssccsscccc" />
  </g>
</svg>
